<svg width="24" height="24" viewBox="0 0 24 24" fill="none" xmlns="http://www.w3.org/2000/svg">
  <!-- DNA Double Helix Icon -->
  <path d="M12 3C9 3 7 5 7 8C7 11 9 13 12 13C15 13 17 11 17 8C17 5 15 3 12 3Z" stroke="currentColor" stroke-width="2" stroke-linecap="round" stroke-linejoin="round"/>
  <path d="M12 11C9 11 7 13 7 16C7 19 9 21 12 21C15 21 17 19 17 16C17 13 15 11 12 11Z" stroke="currentColor" stroke-width="2" stroke-linecap="round" stroke-linejoin="round"/>
  <line x1="7" y1="8" x2="17" y2="8" stroke="currentColor" stroke-width="2" stroke-linecap="round"/>
  <line x1="7" y1="16" x2="17" y2="16" stroke="currentColor" stroke-width="2" stroke-linecap="round"/>
  <circle cx="7" cy="8" r="1.5" fill="currentColor"/>
  <circle cx="17" cy="8" r="1.5" fill="currentColor"/>
  <circle cx="7" cy="16" r="1.5" fill="currentColor"/>
  <circle cx="17" cy="16" r="1.5" fill="currentColor"/>
</svg>
