<svg width="24" height="24" viewBox="0 0 24 24" fill="none" xmlns="http://www.w3.org/2000/svg">
  <!-- Lungs Icon -->
  <path d="M12 3V8" stroke="currentColor" stroke-width="2" stroke-linecap="round"/>
  <path d="M12 8C10.5 8 9 9 8 10.5C7 12 6 14 6 16C6 18.5 7.5 21 10 21C11.5 21 12 20 12 18.5V8Z" stroke="currentColor" stroke-width="2" stroke-linecap="round" stroke-linejoin="round"/>
  <path d="M12 8C13.5 8 15 9 16 10.5C17 12 18 14 18 16C18 18.5 16.5 21 14 21C12.5 21 12 20 12 18.5V8Z" stroke="currentColor" stroke-width="2" stroke-linecap="round" stroke-linejoin="round"/>
  <circle cx="8" cy="14" r="1" fill="currentColor"/>
  <circle cx="16" cy="14" r="1" fill="currentColor"/>
</svg>
